# xmcd
#
# Track frame offsets:
#	150
#	16653
#	35064
#	49166
#	65679
#	84010
#	100370
#	116872
#	135279
#	149382
#	165896
#	184228
#
# Disc length: 2674 seconds
#
# Revision: 1
# Processed by: cddbd v1.5.2PL0 Copyright (c) Steve Scherf et al.
# Submitted via: audiograbber 1.83.01
#
DISCID=9a0a700c
DTITLE=Various Artist - CB20049 Hot Hits Vol. 49
DYEAR=1900
DGENRE=Country
TTITLE0=Clint Black - Loosen Up My Strings
TTITLE1=Lee Ann Womack - A Little Past Little Rock
TTITLE2=Joe Diffie - Poor Me
TTITLE3=Kenny Chesney - I Will Stand
TTITLE4=Mila Mason - This Heart
TTITLE5=Daryle Singletary - My Baby's Lovin'
TTITLE6=Clint Black - Loosen Up My Strings
TTITLE7=Lee Ann Womack - A Little Past Little Rock
TTITLE8=Joe Diffie - Poor Me
TTITLE9=Kenny Chesney - I Will Stand
TTITLE10=Mila Mason - This Heart
TTITLE11=Daryle Singletary - My Baby's Lovin'
EXTD=
EXTT0=
EXTT1=
EXTT2=
EXTT3=
EXTT4=
EXTT5=
EXTT6=
EXTT7=
EXTT8=
EXTT9=
EXTT10=
EXTT11=
PLAYORDER=
